<?xml version="1.0" encoding="UTF-8"?>
<svg width="35px" height="35px" viewBox="0 0 35 35" version="1.1" xmlns="http://www.w3.org/2000/svg" xmlns:xlink="http://www.w3.org/1999/xlink">
    <!-- Generator: Sketch 52.4 (67378) - http://www.bohemiancoding.com/sketch -->
    <title>ic_verified_white</title>
    <desc>Created with Sketch.</desc>
    <g id="Symbols" stroke="none" stroke-width="1" fill="none" fill-rule="evenodd">
        <g id="icon-/-info-/-profile-/-verified-/-white" fill="#FFFFFF">
            <g id="Group-10">
                <g id="ic_verified_white">
                    <path d="M17.5,0 C7.83533333,0 0,7.83533333 0,17.5 C0,27.1646667 7.83533333,35 17.5,35 C27.1646667,35 35,27.1646667 35,17.5 C35,7.83533333 27.1646667,0 17.5,0 M17.5,3.2025 C21.3185,3.2025 24.9095,4.69 27.6103333,7.38966667 C30.31,10.0905 31.7975,13.6815 31.7975,17.5 C31.7975,21.3185 30.31,24.9095 27.6103333,27.6103333 C24.9095,30.31 21.3185,31.7975 17.5,31.7975 C13.6815,31.7975 10.0905,30.31 7.38966667,27.6103333 C4.69,24.9095 3.2025,21.3185 3.2025,17.5 C3.2025,13.6815 4.69,10.0905 7.38966667,7.38966667 C10.0905,4.69 13.6815,3.2025 17.5,3.2025" id="Fill-1"></path>
                    <path d="M12.3604833,25.2793333 L7.55498333,22.1596667 L10.1508167,18.158 L14.80815,21.1831667 C14.9259833,21.259 15.08465,21.245 15.17915,21.1411667 C15.17915,21.14 17.6454833,17.0601667 22.57815,8.90166667 L26.6579833,11.3703333 L19.14115,23.8035 L19.0839833,23.884 C18.2568167,25.0273333 17.0598167,25.7425 15.79515,25.9653333 C14.62965,26.1706667 13.4058167,25.9583333 12.3604833,25.2793333" id="Fill-3"></path>
                </g>
            </g>
        </g>
    </g>
</svg>